<mxfile host="app.diagrams.net" modified="2023-05-31T19:01:59.811Z" agent="Mozilla/5.0 (Macintosh; Intel Mac OS X 10_15_7) AppleWebKit/537.36 (KHTML, like Gecko) Chrome/113.0.0.0 Safari/537.36" version="21.2.8" etag="ZDqJqSEx18CY7zkFic3q" type="github">
  <diagram name="Page-1" id="4muWKEVon9gkMuXGIYDC">
    <mxGraphModel>
      <root>
        <mxCell id="0" />
        <mxCell id="1" parent="0" />
      </root>
    </mxGraphModel>
  </diagram>
</mxfile>
